<?xml version="1.0" encoding="UTF-8" standalone="no"?>
<svg
   xmlns:dc="http://purl.org/dc/elements/1.1/"
   xmlns:cc="http://creativecommons.org/ns#"
   xmlns:rdf="http://www.w3.org/1999/02/22-rdf-syntax-ns#"
   xmlns:svg="http://www.w3.org/2000/svg"
   xmlns="http://www.w3.org/2000/svg"
   xmlns:sodipodi="http://sodipodi.sourceforge.net/DTD/sodipodi-0.dtd"
   xmlns:inkscape="http://www.inkscape.org/namespaces/inkscape"
   viewBox="0 0 100 40"
   version="1.1"
   id="svg100"
   sodipodi:docname="dark.svg"
   inkscape:version="0.92.3 (2405546, 2018-03-11)">
  <metadata
     id="metadata106">
    <rdf:RDF>
      <cc:Work
         rdf:about="">
        <dc:format>image/svg+xml</dc:format>
        <dc:type
           rdf:resource="http://purl.org/dc/dcmitype/StillImage" />
        <dc:title></dc:title>
      </cc:Work>
    </rdf:RDF>
  </metadata>
  <defs
     id="defs104" />
  <sodipodi:namedview
     pagecolor="#ffffff"
     bordercolor="#666666"
     borderopacity="1"
     objecttolerance="10"
     gridtolerance="10"
     guidetolerance="10"
     inkscape:pageopacity="0"
     inkscape:pageshadow="2"
     inkscape:window-width="1004"
     inkscape:window-height="684"
     id="namedview102"
     showgrid="false"
     inkscape:zoom="2.84"
     inkscape:cx="50"
     inkscape:cy="20"
     inkscape:window-x="0"
     inkscape:window-y="0"
     inkscape:window-maximized="0"
     inkscape:current-layer="svg100" />
  <style
     id="style2">.B{stroke-width:.097}.C{stroke-width:.116}.D{stroke-width:.106}.E{stroke-width:.113}</style>
  <path
     d="m 0.335,22.500944 3.494,-0.84 q 0.218,0.983 0.917,1.474 0.7,0.48 1.496,0.48 0.808,0 1.332,-0.524 0.535,-0.524 0.535,-1.245 0,-1.452 -2.173,-1.452 h -1.44 l 0.502,-3.07 h 1.43 q 2.348,0 2.348,-1.594 0,-0.6 -0.48,-0.96 -0.47,-0.36 -1.146,-0.36 -1.605,0 -2.206,1.725 l -3.344,-1.124 q 0.6,-1.736 2.096,-2.773 1.485,-1.048 3.527,-1.048 2.413,0 4.04,1.146 1.638,1.146 1.638,3.123 0,1.288 -0.764,2.217 -0.764,0.928 -2.053,1.2 2.26,0.84 2.26,3.232 0,1.944 -1.56,3.363 -1.56,1.42 -4.324,1.42 -4.914,0 -6.115,-4.4 z m 13.3,3.985 2.5,-14.904 h 4.968 q 1.802,0 2.915,0.262 1.125,0.262 2.173,1.136 1.048,0.874 1.583,2.227 0.535,1.343 0.535,3.046 0,2.206 -0.82,3.964 -0.82,1.758 -2.173,2.795 -1.343,1.026 -2.63,1.256 -1.278,0.218 -3.592,0.218 z m 5.012,-3.34 h 1.005 q 1.583,0 2.337,-0.448 0.753,-0.448 1.3,-1.66 0.546,-1.223 0.546,-2.937 0,-3.298 -2.5,-3.298 h -1.288 z m 22.307,-1.355 h -7.6 q -0.055,0.448 -0.055,0.666 0,0.72 0.46,1.125 0.47,0.404 1.18,0.404 1.343,0 1.9,-1.387 l 3.712,0.6 q -0.72,1.616 -2.337,2.62 -1.605,0.994 -3.57,0.994 -2.468,0 -4.007,-1.398 -1.53,-1.4 -1.53,-3.833 0,-2.63 1.813,-4.5 1.813,-1.9 4.74,-1.9 2.48,0 3.942,1.463 1.474,1.463 1.474,3.887 0,0.546 -0.12,1.256 z m -3.954,-2.13 q 0.055,-0.338 0.055,-0.524 0,-0.6 -0.37,-1.026 -0.36,-0.437 -1.015,-0.437 -0.7,0 -1.267,0.535 -0.568,0.524 -0.7,1.452 z m 10.286,1.355 -0.917,5.47 h -4.324 l 2.5,-14.904 h 4.924 q 1.736,0 2.522,0.153 0.797,0.142 1.638,0.7 0.852,0.557 1.343,1.507 0.502,0.94 0.502,2.02 0,2.096 -1.365,3.57 -1.365,1.474 -3.9,1.474 z m 0.535,-3.188 h 1.026 q 2.348,0 2.348,-1.594 0,-1.43 -1.965,-1.43 h -0.906 z m 14.17,-6.246 -2.491,14.904 h -4.193 l 2.5,-14.904 z m 11.136,14.904 h -4.313 q -0.033,-0.317 -0.033,-0.513 0,-0.557 0.076,-1.3 -1.3,2.075 -3.625,2.075 -1.572,0 -2.544,-0.906 -0.972,-0.906 -0.972,-2.27 0,-1.015 0.524,-1.856 0.524,-0.852 1.485,-1.354 0.96,-0.502 1.965,-0.655 1.005,-0.164 3.93,-0.437 0.13,-0.404 0.13,-0.633 0,-0.906 -1.267,-0.906 -1.245,0 -1.834,1.234 l -3.592,-0.732 q 1.365,-3.068 6.005,-3.068 2.348,0 3.7,0.82 1.343,0.808 1.343,2.4 0,0.7 -0.786,5.023 -0.295,1.605 -0.295,2.13 0,0.426 0.1,0.972 z m -3.887,-5.24 q -3.003,0.23 -3.003,1.922 0,0.928 0.972,0.928 0.622,0 1.245,-0.557 0.622,-0.557 0.786,-2.293 z m 7.688,-5.787 h 3.843 l -0.295,1.8 q 0.448,-1.103 1.463,-1.605 1.015,-0.513 2.14,-0.513 1.4,0 2.282,0.742 0.874,0.742 0.874,1.954 0,0.47 -0.1,1.125 l -1.267,7.534 h -4.193 l 1.114,-6.628 q 0.1,-0.633 0.1,-0.84 0,-0.928 -0.983,-0.928 -1.32,0 -1.616,1.77 l -1.114,6.628 H 75.07 Z m 22.202,2.565 -3.243,0.7 q -0.37,-1.07 -2.042,-1.07 -1.168,0 -1.168,0.655 0,0.58 1.125,0.775 2.293,0.393 3.232,0.863 0.94,0.47 1.4,1.2 0.48,0.72 0.48,1.638 0,1.66 -1.398,2.806 -1.387,1.136 -4.226,1.136 -2.107,0 -3.68,-0.82 -1.56,-0.83 -1.954,-2.48 l 3.45,-0.502 q 0.404,1.2 2.315,1.2 0.742,0 1.103,-0.207 0.36,-0.218 0.36,-0.5 0,-0.262 -0.24,-0.382 -0.24,-0.13 -1.212,-0.35 -1.933,-0.437 -2.752,-0.775 -0.82,-0.35 -1.398,-1.103 -0.568,-0.753 -0.568,-1.747 0,-1.693 1.343,-2.784 1.343,-1.092 3.636,-1.092 2.085,0 3.56,0.808 1.474,0.797 1.867,2.02 z"
     id="path98"
     inkscape:connector-curvature="0" />
</svg>
